# xmcd
#
# Track frame offsets: 
#        183
#        26900
#        49468
#        80163
#        112615
#        135943
#        156908
#        181043
#        197693
#
# Disc length: 2857 seconds
#
# Revision: 1
# Processed by: cddbd v1.5.2PL0 Copyright (c) Steve Scherf et al.
# Submitted via: ExactAudioCopy v0.99pb5
#
DISCID=6f0b2709
DTITLE=Shalamar - Big Fun
DYEAR=1979
DGENRE=Funk
TTITLE0=The Right Time For Us
TTITLE1=Take Me To The River
TTITLE2=Right In The Socket
TTITLE3=The Second Time Around
TTITLE4=I Owe You One
TTITLE5=Let's Find The Time For Love
TTITLE6=Girl
TTITLE7=Right In The Socket (Edit)
TTITLE8=The Second Time Around (Edit)
EXTD=
EXTT0=
EXTT1=
EXTT2=
EXTT3=
EXTT4=
EXTT5=
EXTT6=
EXTT7=
EXTT8=
PLAYORDER=
